HIERARCHY
ROOT Hips
{
  OFFSET 0.0 0.0 0.0
  CHANNELS 6 XPOSITION YPOSITION ZPOSITION ZROTATION YROTATION XROTATION 
  JOINT LeftUpLeg
  {
    OFFSET 8.9458038 -8.6670642 0.1016508
    CHANNELS 3 ZROTATION YROTATION XROTATION 
    JOINT LeftLeg
    {
      OFFSET 2.4072596 -33.2074774 -3.2704786
      CHANNELS 3 ZROTATION YROTATION XROTATION 
      JOINT LeftFoot
      {
        OFFSET 1.8499328 -43.513933800000004 -4.3332908
        CHANNELS 3 ZROTATION YROTATION XROTATION 
        JOINT LeftToes
        {
          OFFSET -0.039979600000000004 -4.415028 11.987149
          CHANNELS 3 ZROTATION YROTATION XROTATION 
          End Site
          {
            OFFSET 0.08001 -0.0473964 7.7020420000000005
          }
        }
      }
    }
  }
  JOINT Spine
  {
    OFFSET 0.0 15.3594308 1.060958
    CHANNELS 3 ZROTATION YROTATION XROTATION 
    JOINT Spine1
    {
      OFFSET -5.08e-05 26.4157968 -4.3109134000000005
      CHANNELS 3 ZROTATION YROTATION XROTATION 
      JOINT Head
      {
        OFFSET -2.54e-05 8.734171 0.0112522
        CHANNELS 3 ZROTATION YROTATION XROTATION 
        End Site
        {
          OFFSET -0.29001720000000003 12.7742442 2.5138126
        }
      }
      JOINT LeftShoulder1
      {
        OFFSET 3.0825694 -0.3622548 -0.2200148
        CHANNELS 3 ZROTATION YROTATION XROTATION 
        JOINT LeftArm
        {
          OFFSET 11.198225 -0.0033528 0.32209740000000003
          CHANNELS 3 ZROTATION YROTATION XROTATION 
          JOINT LeftForeArm
          {
            OFFSET 22.7282502 -0.24945340000000002 0.3357118
            CHANNELS 3 ZROTATION YROTATION XROTATION 
            JOINT LeftHand
            {
              OFFSET 24.9444002 -0.4214114 0.3684524
              CHANNELS 3 ZROTATION YROTATION XROTATION 
              End Site
              {
                OFFSET 18.2702962 -0.5296154 0.4843018
              }
            }
          }
        }
      }
      JOINT RightShoulder
      {
        OFFSET -3.2139636 -0.3622548 -0.21998940000000003
        CHANNELS 3 ZROTATION YROTATION XROTATION 
        JOINT RightArm
        {
          OFFSET -10.9425486 -0.0033782 0.3221482
          CHANNELS 3 ZROTATION YROTATION XROTATION 
          JOINT RightForeArm
          {
            OFFSET -22.852507 -0.2499614 0.3355594
            CHANNELS 3 ZROTATION YROTATION XROTATION 
            JOINT RightHand
            {
              OFFSET -24.9447558 -0.42103039999999997 0.3662934
              CHANNELS 3 ZROTATION YROTATION XROTATION 
              End Site
              {
                OFFSET -18.270474 -0.5299964 0.48247300000000004
              }
            }
          }
        }
      }
    }
  }
  JOINT RightUpLeg
  {
    OFFSET -8.9458038 -8.6670642 0.1016508
    CHANNELS 3 ZROTATION YROTATION XROTATION 
    JOINT RightLeg
    {
      OFFSET -2.1981922000000003 -33.1726032 -3.267837
      CHANNELS 3 ZROTATION YROTATION XROTATION 
      JOINT RightFoot
      {
        OFFSET -2.0501102 -43.533822 -4.3359578
        CHANNELS 3 ZROTATION YROTATION XROTATION 
        JOINT RightToes
        {
          OFFSET 0.0075946 -4.415078800000001 11.987225200000001
          CHANNELS 3 ZROTATION YROTATION XROTATION 
          End Site
          {
            OFFSET 0.012192 -0.13751560000000002 7.702372200000001
          }
        }
      }
    }
  }
}
MOTION
Frames: 23
Frame Time: 0.033333
-4.4721779999999995 99.53853600000001 38.031928 -0.3414 1.0896 2.5292 -2.2704 1.6601 -11.5649 0.6784 0.7499 13.3544 1.5405 0.2181 12.5523 -0.0 0.0 0.0 1.2995 -0.0851 -4.4897 -2.5136 0.0843 0.1366 -0.7171 -1.6631 5.3149 -3.7125 3.9119 -0.048 19.7738 -22.1754 -55.5337 6.1345 -1.2155 58.0246 8.7119 -10.257 -1.086 4.2565 -3.5101 -0.0003 -24.0598 6.9968 -30.1613 5.1207 0.6572 32.9598 -12.3941 10.2152 -1.4684 3.5959 -1.7085 -12.6259 0.2321 4.0821 13.3175 -3.1597 0.0401 13.7182 0.0 0.0 0.0 
-4.446524 99.53853600000001 38.054788 -0.3737 1.0911 2.5015 -2.2456 1.6614 -11.5437 0.6821 0.7206 13.3941 1.4124 0.2431 12.4902 -0.0 0.0 0.0 1.3352 -0.0847 -4.4418 -2.5688 0.0886 0.1398 -0.6372 -1.6668 5.3722 -3.9342 3.8774 -0.0446 19.9897 -22.086 -55.5359 6.1075 -1.217 58.0909 8.687 -10.3201 -1.0893 4.3039 -3.5081 -0.0003 -24.0978 6.9479 -30.0299 5.2012 0.6543 32.8331 -12.3619 10.1798 -1.4606 3.5947 -1.7439 -12.5708 0.2702 4.1423 13.296 -3.0557 0.0174 13.7078 0.0 0.0 0.0 
-4.425188 99.53853600000001 38.08476 -0.3829 1.1192 2.4729 -2.2393 1.6946 -11.483 0.6534 0.6678 13.375 1.414 0.2424 12.4805 -0.0 0.0 0.0 1.2613 -0.0602 -4.3988 -2.4625 0.0988 -0.0454 -0.6567 -1.7427 5.5002 -4.1334 3.7254 -0.0269 20.0751 -21.8821 -55.4235 6.0387 -1.2144 57.9662 8.4567 -10.1916 -1.0532 4.3085 -3.5118 -0.0014 -24.0474 6.8746 -30.1625 5.0911 0.6585 33.0183 -12.3403 10.1659 -1.4566 3.6046 -1.7689 -12.5184 0.289 4.1394 13.274 -3.4677 0.1068 13.7832 0.0 0.0 0.0 
-4.384294 99.53853600000001 38.13937 -0.4888 1.1108 2.6117 -2.147 1.6991 -11.6455 0.6495 0.6918 13.4649 1.4241 0.2385 12.4215 -0.0 0.0 0.0 1.4049 -0.0038 -4.6995 -2.8096 0.1924 0.3784 -0.6405 -1.8378 5.3649 -4.0849 3.625 -0.0147 19.9477 -21.859 -55.2501 5.9169 -1.2095 57.7318 8.4368 -10.1314 -1.0455 4.3461 -3.562 -0.0072 -23.8905 6.6227 -29.8956 5.1772 0.6536 32.8004 -12.4174 10.2467 -1.4749 3.6472 -1.7762 -12.572 0.3022 4.0971 13.1882 -3.1056 0.0277 13.7385 0.0 0.0 0.0 
-4.361942 99.53853600000001 38.179248 -0.5237 1.1197 2.625 -2.137 1.6933 -11.6299 0.6696 0.695 13.46 1.442 0.234 12.3966 -0.0 0.0 0.0 1.4294 0.018 -4.7825 -2.8958 0.2279 0.5725 -0.5403 -1.9604 5.3843 -4.0881 3.6263 -0.0148 19.9143 -21.8889 -55.159 5.8295 -1.2049 57.5137 8.7484 -10.0175 -1.0673 4.354 -3.6229 -0.015 -23.772 6.5345 -29.7618 5.245 0.6479 32.5491 -12.3881 10.1479 -1.4593 3.6475 -1.8481 -12.5324 0.3743 4.1745 13.1364 -3.2271 0.054 13.7661 0.0 0.0 0.0 
-4.36372 99.53878999999999 38.208712 -0.4808 1.1722 2.6039 -2.1857 1.7405 -11.5972 0.6307 0.5698 13.4603 1.5629 0.2091 12.4065 -0.0 0.0 0.0 1.2541 0.0337 -4.7657 -2.5737 0.2148 0.527 -0.4756 -2.0882 5.3468 -4.0072 3.7412 -0.0285 19.7612 -22.0622 -55.2513 5.9082 -1.2057 57.5538 8.6019 -10.0941 -1.0593 4.3774 -3.6262 -0.0165 -23.751 6.4697 -29.8353 5.1753 0.6482 32.5553 -12.4782 10.1913 -1.4743 3.6288 -1.8321 -12.5086 0.3766 4.1666 13.1681 -3.5004 0.1137 13.8014 0.0 0.0 0.0 
-4.34467 99.539044 38.221158 -0.5027 1.19 2.5854 -2.1468 1.7709 -11.5092 0.5866 0.5534 13.3638 1.5649 0.2084 12.3984 -0.0 0.0 0.0 1.2124 0.0007 -4.7398 -2.5981 0.1832 0.2923 -0.42 -2.051 5.2071 -4.0171 3.6234 -0.0144 19.7639 -21.8132 -55.1758 5.9195 -1.21 57.7566 8.5546 -10.127 -1.0575 4.4897 -3.6379 -0.0154 -23.7704 6.492 -29.7482 5.2228 0.6449 32.4089 -12.6128 10.3213 -1.5051 3.6326 -1.8615 -12.5032 0.3948 4.1661 13.2097 -3.5229 0.1188 13.7946 0.0 0.0 0.0 
-4.339335999999999 99.54006 38.27018 -0.5169 1.2328 2.6615 -2.1157 1.8199 -11.5475 0.5432 0.4566 13.3432 1.4781 0.225 12.3488 -0.0 0.0 0.0 1.1323 0.0076 -4.9906 -2.4498 0.1852 0.776 -0.4419 -2.0492 5.1513 -3.9427 3.5753 -0.0086 19.7345 -21.7745 -55.2076 5.9624 -1.2099 57.7515 8.7136 -10.3493 -1.0948 4.6214 -3.5795 -0.0125 -23.9133 6.3397 -29.4633 5.4379 0.6384 32.1337 -12.5603 10.3202 -1.4994 3.6119 -1.8637 -12.5501 0.3957 4.0478 13.221 -3.2906 0.0686 13.7313 0.0 0.0 0.0 
-4.327144 99.54183800000001 38.298373999999995 -0.459 1.2072 2.6663 -2.1881 1.8282 -11.5118 0.5388 0.4755 13.3005 1.5266 0.2161 12.387 -0.0 0.0 0.0 0.9473 0.0447 -5.0655 -2.1666 0.1992 0.93 -0.5435 -1.9656 5.1618 -3.9559 3.5878 -0.0101 19.7106 -21.8374 -55.3372 6.066 -1.2112 57.8179 8.7284 -10.186 -1.0811 4.5282 -3.574 -0.0087 -23.9146 6.3578 -29.3794 5.5142 0.6359 32.0255 -12.5048 10.1933 -1.4774 3.521 -1.8874 -12.5369 0.4114 4.1022 13.2336 -3.1529 0.0396 13.6629 0.0 0.0 0.0 
-4.32562 99.543616 38.312344 -0.3995 1.2701 2.522 -2.2365 1.9188 -11.2866 0.4926 0.3831 13.205 1.4763 0.2262 12.3762 -0.0 0.0 0.0 0.7599 0.0403 -4.8697 -1.6739 0.1428 0.6118 -0.5799 -1.9129 5.3049 -3.9257 3.6604 -0.0187 19.6759 -21.9151 -55.4322 6.1449 -1.214 57.9565 8.5238 -10.0678 -1.0488 4.311 -3.5227 -0.0023 -23.7859 6.3345 -29.4797 5.4196 0.6407 32.2356 -12.4031 10.0212 -1.4448 3.4455 -1.9017 -12.4171 0.435 4.0762 13.3224 -3.238 0.0589 13.6374 0.0 0.0 0.0 
-4.2793920000000005 99.545648 38.301676 -0.4033 1.2955 2.4988 -2.2916 1.8346 -11.2803 0.5406 0.435 13.2287 1.5763 0.2053 12.373 -0.0 0.0 0.0 0.8195 0.0194 -4.8363 -1.8595 0.1397 0.5202 -0.5181 -1.956 5.3675 -3.9523 3.7059 -0.0242 19.8941 -22.0295 -55.5423 6.1579 -1.2165 58.0736 8.4619 -10.1423 -1.0492 4.2478 -3.4872 0.0022 -23.7118 6.2061 -29.3095 5.4717 0.6378 32.1054 -12.4526 10.1639 -1.4681 3.4277 -1.9497 -12.3709 0.4447 4.1323 13.2587 -3.3041 0.0716 13.7295 0.0 0.0 0.0 
-4.2418 99.54742599999999 38.288976000000005 -0.4312 1.2942 2.3809 -2.2941 1.8072 -11.1771 0.5684 0.4521 13.2513 1.5594 0.209 12.378 -0.0 0.0 0.0 0.8894 -0.0016 -4.6586 -2.0326 0.1367 0.4243 -0.5719 -2.0057 5.3477 -3.8872 3.7035 -0.0238 19.9984 -22.0302 -55.5858 6.1496 -1.2125 57.8865 8.3745 -10.262 -1.051 4.196 -3.4835 0.0048 -23.6518 6.1898 -29.0694 5.6109 0.6311 31.8166 -12.5046 10.1638 -1.4736 3.4727 -1.9526 -12.259 0.3973 4.1498 13.269 -3.4199 0.0973 13.7221 0.0 0.0 0.0 
-4.205478 99.54895 38.268402 -0.4467 1.3079 2.3375 -2.3146 1.7702 -11.1504 0.5868 0.465 13.2606 1.6752 0.1857 12.406 -0.0 0.0 0.0 0.8878 -0.0322 -4.5921 -2.15 0.119 0.4433 -0.5741 -1.9633 5.3401 -3.8682 3.6407 -0.0163 20.0508 -21.8898 -55.4053 6.0084 -1.2107 57.7925 8.5256 -10.225 -1.0634 4.26 -3.4901 0.0064 -23.7783 6.2675 -29.1907 5.5673 0.6336 31.9249 -12.5665 10.2621 -1.4926 3.4559 -2.0142 -12.2305 0.4233 4.1807 13.2664 -3.4131 0.0952 13.7555 0.0 0.0 0.0 
-4.172712 99.55022 38.229286 -0.5009 1.3144 2.2911 -2.2467 1.7854 -11.1484 0.585 0.4446 13.2994 1.3188 0.2593 12.3808 -0.0 0.0 0.0 0.9993 -0.0476 -4.4427 -2.2498 0.104 0.1758 -0.5913 -1.9872 5.3538 -3.991 3.7299 -0.027 20.1887 -21.9647 -55.3285 5.8824 -1.2098 57.7452 8.7166 -10.0245 -1.0647 4.268 -3.4698 0.0074 -23.749 6.1712 -29.0894 5.6089 0.63 31.7626 -12.5976 10.1966 -1.4875 3.4801 -1.9859 -12.1558 0.3977 4.1259 13.1847 -3.264 0.0619 13.7756 0.0 0.0 0.0 
-4.139692 99.55047400000001 38.190932000000004 -0.4993 1.2743 2.2037 -2.229 1.7776 -11.0572 0.6047 0.5277 13.278 0.8502 0.3598 12.4657 -0.0 0.0 0.0 1.0052 -0.0431 -4.2736 -2.1815 0.0977 -0.0948 -0.4558 -1.9944 5.472 -3.9662 3.682 -0.0225 20.1181 -21.8765 -55.2479 5.8612 -1.2106 57.779 8.523 -10.0103 -1.0434 4.244 -3.4319 0.0075 -23.662 6.1284 -29.0324 5.6252 0.6301 31.7681 -12.5304 10.1806 -1.4784 3.5027 -1.9199 -12.1156 0.3286 4.1264 13.2271 -3.3306 0.0764 13.7962 0.0 0.0 0.0 
-4.11099 99.54996600000001 38.151308 -0.3973 1.2399 2.1995 -2.4513 1.7552 -11.0642 0.6306 0.5665 13.2454 1.7404 0.1737 12.4634 -0.0 0.0 0.0 0.8161 -0.0494 -4.2327 -1.7815 0.058 -0.1567 -0.4209 -1.9805 5.4764 -3.9063 3.6781 -0.0256 19.9915 -21.7121 -55.0534 5.7726 -1.2092 57.7107 8.1909 -10.0836 -1.0157 4.26 -3.4222 0.0055 -23.6987 6.263 -29.1387 5.5922 0.6323 31.8687 -12.5314 10.1681 -1.4769 3.3272 -1.9527 -12.1897 0.3609 4.1221 13.3246 -2.9936 0.0049 13.658 0.0 0.0 0.0 
-4.0894 99.54412400000001 38.10508 -0.369 1.2963 2.1776 -2.4333 1.7937 -11.0621 0.5528 0.4582 13.2329 1.4138 0.2427 12.4838 -0.0 0.0 0.0 0.7412 -0.055 -4.1111 -1.6121 0.0349 -0.1913 -0.4369 -2.0218 5.4474 -3.9945 3.7485 -0.0298 20.0218 -21.8181 -55.1276 5.7894 -1.2052 57.5253 8.2903 -10.0905 -1.0267 4.1144 -3.4614 0.0054 -23.4461 6.1341 -29.1236 5.4949 0.6359 32.0248 -12.5086 10.1238 -1.4689 3.3398 -1.9516 -12.2191 0.3288 4.0607 13.3377 -3.385 0.0885 13.7907 0.0 0.0 0.0 
-4.08051 99.534472 38.072568000000004 -0.3318 1.277 2.2199 -2.4231 1.8137 -11.1286 0.5351 0.4784 13.2322 0.8724 0.3578 12.5335 -0.0 0.0 0.0 0.6103 -0.0723 -4.1543 -1.3886 0.0009 -0.0307 -0.3649 -1.9102 5.4121 -3.8912 3.755 -0.0299 19.8222 -21.6514 -55.0153 5.7862 -1.2056 57.5416 8.327 -10.0925 -1.0306 4.2473 -3.4101 0.0114 -23.3365 6.0067 -29.1444 5.4243 0.6341 31.936 -12.4846 9.9359 -1.4424 3.2775 -1.8731 -12.3128 0.2515 3.9442 13.3649 -2.828 -0.0317 13.6639 0.0 0.0 0.0 
-4.04114 99.54006 38.006782 -0.4542 1.2482 2.1805 -2.3324 1.8465 -11.2773 0.4823 0.4917 13.4712 1.4667 0.2307 12.4569 -0.0 0.0 0.0 0.7677 -0.1031 -3.9766 -1.9922 0.0228 -0.2754 -0.1816 -1.8386 5.3121 -3.6704 3.6694 -0.0195 19.4285 -21.4481 -54.9891 5.8977 -1.2003 57.3007 8.4778 -10.1157 -1.0485 4.3031 -3.3371 0.0204 -22.687 5.6472 -29.4596 5.096 0.6236 31.4362 -12.3859 9.6185 -1.3927 3.3669 -1.9601 -12.2049 0.3284 3.9827 13.2072 -3.1353 0.0329 13.804 0.0 0.0 0.0 
-3.977894 99.525836 37.935662 -0.588 1.387 2.1794 -2.1417 1.764 -11.4849 0.4542 0.4561 13.719 0.6883 0.3943 12.4817 -0.0 0.0 0.0 0.9422 -0.1716 -3.7087 -2.9303 0.0438 -0.518 0.1603 -2.126 5.0709 -3.1876 3.3945 0.0122 18.1376 -20.9389 -54.655 5.9746 -1.1741 56.0963 9.0844 -10.0862 -1.1087 4.5016 -3.3491 0.0192 -21.2591 4.9396 -30.1123 4.6073 0.5889 29.828 -12.175 8.117 -1.1837 3.3581 -2.1804 -12.0484 0.4728 4.0034 12.868 -2.8433 -0.032 13.8295 0.0 0.0 0.0 
-3.9258240000000004 99.532694 37.875464 -0.742 1.6113 2.3591 -1.9711 1.7825 -11.9905 0.292 0.104 14.1226 0.9376 0.3404 12.434 -0.0 0.0 0.0 1.1593 -0.2133 -3.6003 -3.8334 0.1023 -0.0418 0.5217 -2.6163 4.4146 -2.9883 3.074 0.0477 16.3083 -20.2005 -53.9774 6.0064 -1.1629 55.5812 9.7195 -10.0199 -1.1679 5.0458 -3.2145 0.0375 -18.8665 3.5944 -30.8006 3.7843 0.5383 27.4646 -12.5628 6.3601 -0.9943 3.4948 -2.2236 -12.102 0.4655 3.8973 12.5304 -3.0129 0.0002 14.0766 0.0 0.0 0.0 
-3.862324 99.54234600000001 37.750750000000004 -0.7418 2.0919 2.5871 -2.0731 1.6588 -12.5361 0.174 -0.2911 14.3603 1.8364 0.1555 12.5307 -0.0 0.0 0.0 1.1543 -0.2981 -3.2571 -4.2084 0.0757 0.1378 1.0427 -3.1269 3.1919 -3.1681 2.9825 0.0589 14.0532 -19.7537 -53.0945 6.0438 -1.1825 56.4878 10.1889 -9.9223 -1.2061 5.9279 -2.9144 0.0808 -15.69 1.7967 -31.864 3.1508 0.4546 23.5502 -12.8329 4.9232 -0.8282 3.4152 -2.2549 -12.5999 0.405 3.4237 12.8316 -2.6677 -0.0731 13.9081 0.0 0.0 0.0 
-3.7774880000000004 99.54615600000001 37.603684 -0.8362 3.0493 2.7222 -1.9769 1.5717 -13.1598 -0.1197 -1.141 14.7922 1.8622 0.153 12.6397 -0.0 0.0 0.0 1.2117 -0.5143 -2.5721 -4.8282 -0.0574 0.2524 1.2644 -3.6259 1.594 -3.8585 2.4606 0.1238 10.9842 -18.8352 -52.1846 6.2456 -1.1805 56.4056 10.0317 -9.6297 -1.1589 7.4957 -2.813 0.1043 -11.2304 -0.8909 -32.7437 2.8395 0.3467 18.3959 -12.6268 3.7264 -0.6624 3.5273 -2.3009 -13.1498 0.2313 2.5958 13.4979 -3.0853 0.0215 13.8216 0.0 0.0 0.0 
